<svg width="12" height="13" viewBox="0 0 12 13" fill="none" xmlns="http://www.w3.org/2000/svg">
<g clip-path="url(#clip0_4715_3747)">
<path d="M7.50012 10.4688C7.50012 11.2972 6.82855 11.9688 6.00012 11.9688C5.1717 11.9688 4.50012 11.2972 4.50012 10.4688M6.89838 4.08803C7.11612 3.86307 7.25012 3.55656 7.25012 3.21875C7.25012 2.52839 6.69048 1.96875 6.00012 1.96875C5.30977 1.96875 4.75012 2.52839 4.75012 3.21875C4.75012 3.55656 4.88413 3.86307 5.10187 4.08803M1.27353 5.13023C1.26636 4.40456 1.6576 3.72691 2.28964 3.37028M10.7267 5.13023C10.7339 4.40456 10.3426 3.72691 9.71061 3.37028M9.00012 6.56875C9.00012 5.87919 8.68405 5.21787 8.12145 4.73027C7.55884 4.24268 6.79577 3.96875 6.00012 3.96875C5.20447 3.96875 4.44141 4.24268 3.8788 4.73027C3.3162 5.21787 3.00012 5.87919 3.00012 6.56875C3.00012 7.70965 2.71719 8.54404 2.36416 9.14109C1.96179 9.82156 1.76061 10.1618 1.76856 10.2431C1.77765 10.3361 1.79438 10.3654 1.86979 10.4205C1.93571 10.4687 2.26688 10.4688 2.92922 10.4688H9.07103C9.73337 10.4688 10.0645 10.4687 10.1305 10.4205C10.2059 10.3654 10.2226 10.3361 10.2317 10.2431C10.2396 10.1618 10.0385 9.82156 9.63609 9.14109C9.28306 8.54404 9.00012 7.70965 9.00012 6.56875Z" stroke="white" stroke-linecap="round" stroke-linejoin="round"/>
</g>
<defs>
<clipPath id="clip0_4715_3747">
<rect width="12" height="12" fill="white" transform="translate(0 0.96875)"/>
</clipPath>
</defs>
</svg>
