<svg width="12" height="13" viewBox="0 0 12 13" fill="none" xmlns="http://www.w3.org/2000/svg">
<path d="M3.75 6.96875H3.755M6 6.96875H6.005M8.25 6.96875H8.255M6 11.4688C8.48528 11.4688 10.5 9.45403 10.5 6.96875C10.5 4.48347 8.48528 2.46875 6 2.46875C3.51472 2.46875 1.5 4.48347 1.5 6.96875C1.5 7.56732 1.61687 8.1386 1.82903 8.66101C1.86964 8.76099 1.88994 8.81098 1.899 8.85139C1.90786 8.89092 1.9111 8.92017 1.9111 8.96068C1.91111 9.0021 1.90359 9.04721 1.88855 9.13743L1.59206 10.9164C1.56102 11.1027 1.54549 11.1958 1.57438 11.2632C1.59966 11.3221 1.64664 11.3691 1.70559 11.3944C1.77295 11.4233 1.86609 11.4077 2.05238 11.3767L3.83133 11.0802C3.92154 11.0652 3.96665 11.0576 4.00807 11.0576C4.04858 11.0577 4.07783 11.0609 4.11736 11.0698C4.15777 11.0788 4.20776 11.0991 4.30775 11.1397C4.83015 11.3519 5.40143 11.4688 6 11.4688ZM4 6.96875C4 7.10682 3.88807 7.21875 3.75 7.21875C3.61193 7.21875 3.5 7.10682 3.5 6.96875C3.5 6.83068 3.61193 6.71875 3.75 6.71875C3.88807 6.71875 4 6.83068 4 6.96875ZM6.25 6.96875C6.25 7.10682 6.13807 7.21875 6 7.21875C5.86193 7.21875 5.75 7.10682 5.75 6.96875C5.75 6.83068 5.86193 6.71875 6 6.71875C6.13807 6.71875 6.25 6.83068 6.25 6.96875ZM8.5 6.96875C8.5 7.10682 8.38807 7.21875 8.25 7.21875C8.11193 7.21875 8 7.10682 8 6.96875C8 6.83068 8.11193 6.71875 8.25 6.71875C8.38807 6.71875 8.5 6.83068 8.5 6.96875Z" stroke="#ED008C" stroke-linecap="round" stroke-linejoin="round"/>
</svg>
