<svg width="15" height="21" viewBox="0 0 15 21" fill="none" xmlns="http://www.w3.org/2000/svg">
<path d="M3.09994 0.000207777C1.33223 0.00346956 -7.79104e-05 1.41301 3.41714e-09 3.0078V13.5431C3.41714e-09 15.0243 1.23313 15.8942 1.30786 15.9458L6.23633 20.4285C6.54119 20.7128 7.07747 20.9406 7.49972 20.9406C9.3459 14.9636 8.93335 8.87254 7.49972 2.73053L5.63513 1.01031C5.09581 0.507418 4.22617 -0.0158678 3.09994 0.000368383V0.000207777Z" fill="#F0FF3C"/>
<path d="M11.9003 0.000207776C13.668 0.00346956 15.0003 1.41301 15.0002 3.00779V13.5431C15.0002 15.0243 13.7671 15.8942 13.6923 15.9458L8.76387 20.4285C8.45901 20.7128 7.92273 20.9406 7.50049 20.9406V2.73053L9.36508 1.01031C9.90439 0.507418 10.774 -0.0158678 11.9003 0.000368383V0.000207776Z" fill="#37C98A"/>
<path d="M7.50029 4.56517C9.79126 9.62047 8.77812 14.614 7.50029 19.6027L1.41504 14.2833L1.46375 1.95382L3.77413 1.29688L7.50029 4.56517Z" fill="#F0FF3C"/>
<path d="M7.50049 4.56517L7.50049 19.6027L13.5857 14.2833L13.537 1.95382L11.2266 1.29688L7.50049 4.56517Z" fill="#37C98A"/>
<path d="M0.929199 3.00669V13.542C0.929199 14.512 1.9331 15.3035 1.9331 15.3035L6.89374 19.8155C7.10016 20.008 7.26405 20.0742 7.50098 20.0742C7.69494 19.8831 7.98216 19.4446 7.50098 19.1298L2.54683 14.6268C2.54683 14.6268 1.87969 13.9418 1.87969 13.542V3.00669C1.87966 2.24626 2.44025 1.75002 3.06828 1.74568C3.6963 1.74134 4.01479 1.97401 4.69485 2.60283L7.50099 5.19324C7.77873 4.8717 7.89179 4.22682 7.50099 3.94654L4.98025 1.62096C4.56146 1.23045 4.05521 0.849346 3.01502 0.856546C1.97483 0.863718 0.929121 1.82318 0.929199 3.00669Z" fill="#F0FF3C"/>
<path d="M14.0723 3.00669V13.542C14.0723 14.512 13.0684 15.3035 13.0684 15.3035L8.10774 19.8155C7.90132 20.008 7.73743 20.0742 7.50051 20.0742V19.1298L12.4547 14.6268C12.4547 14.6268 13.1218 13.9418 13.1218 13.542V3.00669C13.1218 2.24626 12.5612 1.75002 11.9332 1.74568C11.3052 1.74134 10.9867 1.97401 10.3066 2.60283L7.50049 5.19324V3.94654L10.0212 1.62096C10.44 1.23045 10.9463 0.849346 11.9865 0.856546C13.0266 0.863718 14.0724 1.82318 14.0723 3.00669Z" fill="#37C98A"/>
<path d="M3.10059 0.400391H3.10547C4.09893 0.386068 4.87376 0.847216 5.3623 1.30273L5.36426 1.30469L7.22852 3.02441L7.5 3.27441L7.77051 3.02441L9.63574 1.30469L9.63672 1.30273C10.1252 0.847241 10.9001 0.386151 11.8936 0.400391H11.8984C13.4474 0.403261 14.5996 1.63577 14.5996 3.00781V13.543C14.5996 14.1676 14.34 14.6714 14.0576 15.0352C13.7765 15.3972 13.4875 15.6005 13.4648 15.6162L13.4424 15.6318L13.4229 15.6504L8.49414 20.1328L8.49023 20.1357C8.38015 20.2384 8.21383 20.3436 8.02344 20.4219C7.83252 20.5004 7.64533 20.541 7.5 20.541C7.35475 20.541 7.16743 20.5003 6.97656 20.4219C6.78617 20.3436 6.61886 20.2384 6.50879 20.1357L6.50586 20.1328L1.57715 15.6504L1.55762 15.6318L1.53516 15.6172L1.33789 15.458C1.22733 15.3599 1.0831 15.2177 0.941406 15.0352C0.65907 14.6714 0.400391 14.1675 0.400391 13.543V3.00781C0.400393 1.72136 1.41236 0.557665 2.81543 0.415039L3.10059 0.400391Z" stroke="#313037" stroke-width="0.8"/>
</svg>
