<svg width="12" height="13" viewBox="0 0 12 13" fill="none" xmlns="http://www.w3.org/2000/svg">
<g clip-path="url(#clip0_4715_1901)">
<path d="M4.19014 5.39543C4.53814 6.12024 5.01253 6.79956 5.61332 7.40035C6.21411 8.00113 6.89343 8.47553 7.61824 8.82353C7.68059 8.85346 7.71176 8.86843 7.7512 8.87993C7.89138 8.92079 8.06351 8.89144 8.18222 8.80643C8.21563 8.78251 8.24421 8.75393 8.30136 8.69678C8.47617 8.52197 8.56357 8.43457 8.65146 8.37743C8.9829 8.16193 9.41019 8.16193 9.74164 8.37743C9.82953 8.43457 9.91693 8.52197 10.0917 8.69678L10.1892 8.79421C10.4549 9.05993 10.5877 9.19279 10.6599 9.33548C10.8035 9.61926 10.8035 9.9544 10.6599 10.2382C10.5877 10.3809 10.4549 10.5137 10.1892 10.7795L10.1103 10.8583C9.84554 11.1231 9.71313 11.2555 9.53312 11.3566C9.33336 11.4688 9.02312 11.5495 8.79401 11.5488C8.58753 11.5482 8.44642 11.5082 8.1642 11.428C6.6475 10.9976 5.21632 10.1853 4.02233 8.99134C2.82834 7.79735 2.0161 6.36617 1.58562 4.84947C1.50551 4.56724 1.46546 4.42613 1.46485 4.21966C1.46417 3.99055 1.54485 3.6803 1.65706 3.48055C1.75818 3.30053 1.89059 3.16813 2.1554 2.90332L2.23422 2.8245C2.49994 2.55878 2.6328 2.42592 2.77549 2.35375C3.05927 2.21021 3.3944 2.21021 3.67818 2.35374C3.82087 2.42592 3.95373 2.55878 4.21945 2.8245L4.31689 2.92193C4.49169 3.09674 4.57909 3.18414 4.63624 3.27203C4.85173 3.60347 4.85173 4.03076 4.63624 4.36221C4.57909 4.4501 4.49169 4.5375 4.31689 4.7123C4.25973 4.76946 4.23115 4.79804 4.20723 4.83144C4.12223 4.95016 4.09288 5.12229 4.13374 5.26246C4.14524 5.30191 4.1602 5.33308 4.19014 5.39543Z" stroke="white" stroke-linecap="round" stroke-linejoin="round"/>
</g>
<defs>
<clipPath id="clip0_4715_1901">
<rect width="12" height="12" fill="white" transform="translate(0 0.96875)"/>
</clipPath>
</defs>
</svg>
