<svg width="12" height="13" viewBox="0 0 12 13" fill="none" xmlns="http://www.w3.org/2000/svg">
<path d="M11 5.43444C11 5.13153 11 4.98007 10.9401 4.90994C10.8881 4.84909 10.8102 4.8168 10.7304 4.82307C10.6384 4.83031 10.5313 4.9374 10.3172 5.15159L8.5 6.96875L10.3172 8.78591C10.5313 9.0001 10.6384 9.10719 10.7304 9.11443C10.8102 9.1207 10.8881 9.08841 10.9401 9.02756C11 8.95743 11 8.80597 11 8.50306V5.43444Z" stroke="white" stroke-linecap="round" stroke-linejoin="round"/>
<path d="M1 5.86875C1 5.02867 1 4.60863 1.16349 4.28776C1.3073 4.00552 1.53677 3.77605 1.81901 3.63224C2.13988 3.46875 2.55992 3.46875 3.4 3.46875H6.1C6.94008 3.46875 7.36012 3.46875 7.68099 3.63224C7.96323 3.77605 8.1927 4.00552 8.33651 4.28776C8.5 4.60863 8.5 5.02867 8.5 5.86875V8.06875C8.5 8.90883 8.5 9.32887 8.33651 9.64974C8.1927 9.93198 7.96323 10.1614 7.68099 10.3053C7.36012 10.4687 6.94008 10.4688 6.1 10.4688H3.4C2.55992 10.4688 2.13988 10.4687 1.81901 10.3053C1.53677 10.1614 1.3073 9.93198 1.16349 9.64974C1 9.32887 1 8.90883 1 8.06875V5.86875Z" stroke="white" stroke-linecap="round" stroke-linejoin="round"/>
</svg>
